<svg xmlns="http://www.w3.org/2000/svg" width="1024" height="1024" viewBox="0 0 1024 1024"><defs><linearGradient id="wood" x1="0" y1="0" x2="0.3" y2="1"><stop offset="0" stop-color="#5C3223"/><stop offset="1" stop-color="#351B12"/></linearGradient></defs><rect width="1024" height="1024" fill="url(#wood)"/><path d="M -20,70 C 300,81 700,64 1044,74" fill="none" stroke="#1E0D08" stroke-width="6" opacity="0.35"/><path d="M -20,160 C 300,163 700,162 1044,159" fill="none" stroke="#1E0D08" stroke-width="3" opacity="0.3"/><path d="M -20,230 C 300,240 700,243 1044,229" fill="none" stroke="#1E0D08" stroke-width="8" opacity="0.25"/><path d="M -20,330 C 300,335 700,317 1044,334" fill="none" stroke="#1E0D08" stroke-width="4" opacity="0.3"/><path d="M -20,430 C 300,434 700,445 1044,436" fill="none" stroke="#1E0D08" stroke-width="10" opacity="0.2"/><path d="M -20,520 C 300,514 700,517 1044,523" fill="none" stroke="#1E0D08" stroke-width="3" opacity="0.3"/><path d="M -20,610 C 300,596 700,609 1044,603" fill="none" stroke="#1E0D08" stroke-width="6" opacity="0.25"/><path d="M -20,720 C 300,709 700,707 1044,725" fill="none" stroke="#1E0D08" stroke-width="4" opacity="0.3"/><path d="M -20,830 C 300,819 700,822 1044,828" fill="none" stroke="#1E0D08" stroke-width="8" opacity="0.2"/><path d="M -20,940 C 300,951 700,927 1044,939" fill="none" stroke="#1E0D08" stroke-width="3" opacity="0.3"/></svg>